<svg width="109" height="51" viewBox="0 0 109 51" fill="none" xmlns="http://www.w3.org/2000/svg">
<g id="Black">
<path id="Vector" d="M35.0001 0.67643L34.0529 1.20438L32.438 0.986988C29.1771 0.552204 25.7609 0.769596 23.0901 1.56152C17.6708 3.17643 13.6025 8.28514 13.851 13.192C13.9597 15.2262 14.8448 16.7168 16.382 17.4622C17.1584 17.8349 18.7423 17.9436 19.6584 17.6951C21.1802 17.2603 22.5777 15.3814 22.9659 13.2852C23.1212 12.4156 23.2143 9.77583 23.0746 9.77583C23.0435 9.77583 22.6398 9.94664 22.1895 10.1485C21.7237 10.3659 21.087 10.5833 20.7764 10.6299C20.2485 10.7386 20.2174 10.7696 20.3572 11.1268C20.5746 11.6858 20.528 13.4404 20.2796 14.015C19.9535 14.7914 19.3634 15.2417 18.6646 15.2727C17.0497 15.3038 16.4131 13.7355 17.0031 11.2199C17.8261 7.69508 20.6056 4.99321 24.6119 3.78202C25.7765 3.44041 26.3976 3.36277 28.3386 3.30066C29.6274 3.25407 30.8231 3.28513 31.0094 3.36277C31.32 3.48699 31.2889 3.54911 30.4193 4.69818C28.1212 7.72614 25.4504 13.3007 22.9038 20.3814C22.5622 21.3287 22.4224 21.5771 22.2205 21.4995C22.0808 21.4373 21.2112 21.4063 20.264 21.4063C18.2764 21.4063 16.7547 21.7945 16.1491 22.4311C15.792 22.8038 15.7764 22.8659 15.9938 23.2541C16.4441 24.0461 18.882 24.5119 20.8386 24.1703L21.5528 24.0461L20.7299 26.2666C17.5777 34.7759 14.9845 39.9157 12.4845 42.6486L11.8789 43.3163L10.5746 42.6952C8.2143 41.5616 6.95654 41.22 5.20188 41.22C3.35405 41.22 2.6087 41.4995 1.41305 42.6175C0.434784 43.5337 0 44.4032 0 45.4747C0 46.8256 0.729815 47.866 2.36025 48.7977C3.33852 49.3722 4.53417 49.6672 6.21119 49.7759C9.17704 49.9778 11.7702 49.279 14.1926 47.6486L15.5901 46.7014L17.469 47.3225C20.5435 48.3629 23.2454 48.72 25.8541 48.4405C27.9193 48.2231 28.9597 47.9281 30.8386 47.0275C34.1926 45.4281 36.7858 42.633 38.4007 38.8908C41.0715 32.7107 40.202 25.6454 36.4442 23.0678C35.5901 22.4777 34.0684 21.8877 33.4007 21.8877C33.1057 21.8877 33.3386 21.7169 34.2392 21.2821C35.9318 20.4746 37.2827 19.4187 38.3852 18.0367C40.3728 15.5367 41.4597 12.4777 41.4597 9.40316C41.4597 6.04911 40.0312 3.54911 37.3448 2.22923C36.0405 1.59258 36.0405 1.53047 37.2206 0.831707C38.0591 0.350342 37.9193 0.148476 36.7237 0.148476C36.1336 0.148476 35.7299 0.272701 35.0001 0.67643ZM35.1088 5.22613C36.5995 6.82551 37.1585 8.33173 37.1585 10.6299C37.1429 13.4715 36.1492 15.7075 33.9286 17.9436C32.7485 19.1392 32.2982 19.4653 31.056 20.0709C29.8448 20.6765 27.6398 21.3908 27.6398 21.1889C27.6398 21.1578 28.2299 19.2324 28.9442 16.8876C30.6988 11.1889 32.0187 7.69508 33.3386 5.24166C33.9908 4.046 34.0063 4.046 35.1088 5.22613ZM30.9783 23.5181C33.9286 24.2945 35.5436 26.9653 35.5591 31.0802C35.5746 37.6952 31.2889 44.7449 26.3976 46.1734C25.264 46.515 22.6243 46.515 21.0249 46.189C20.3572 46.0492 19.2236 45.7076 18.5094 45.4281L17.205 44.9312L17.8572 44.1703C20.5901 40.8939 23.9442 33.3628 26.4752 24.8069C26.8634 23.5026 26.8945 23.456 27.3758 23.3939C28.5715 23.2541 30.1243 23.3007 30.9783 23.5181ZM8.30747 44.6517C9.28574 44.9778 10.0932 45.2883 10.0932 45.3349C10.0932 45.5213 8.41617 46.4064 7.62424 46.6393C6.08697 47.0896 4.78262 46.8877 4.13044 46.0958C3.6646 45.5523 3.61802 45.0865 3.97516 44.5896C4.5497 43.7666 5.65219 43.7821 8.30747 44.6517Z" fill="#302823"/>
<path id="Vector_2" d="M98.1509 0.847027C94.0981 2.7725 88.2129 14.4961 86.4893 24.0614C86.2564 25.3812 86.0701 25.9403 85.5421 26.8564C84.0359 29.5583 82.3899 31.3595 81.4427 31.3595C79.2688 31.3595 80.1073 27.2291 84.9676 13.9682C86.1788 10.6762 88.0577 5.75387 89.098 3.1607L89.4241 2.35324L88.0887 2.89672C87.3589 3.19175 86.2098 3.5489 85.5421 3.68865L84.2999 3.95263L82.0018 10.9402C80.7285 14.7756 79.5328 18.4868 79.3309 19.1545L78.9738 20.3812L78.7098 19.7756C78.3682 18.9682 77.6539 18.3315 76.9862 18.2228C75.5576 17.9899 73.3992 19.2477 71.9241 21.1887C70.9769 22.4309 69.4551 25.4278 68.8961 27.1825C68.2284 29.2167 65.9458 32.9278 64.8278 33.7664C64.0825 34.3564 63.3526 34.3564 63.0731 33.8129C62.7936 33.2229 62.98 32.3223 64.0359 28.9837C65.1694 25.4434 65.3868 24.4962 65.4023 23.3471C65.4023 22.0117 65.0452 21.3129 64.1446 20.9092C63.3682 20.5676 61.9862 20.6142 61.1942 21.0179C60.3713 21.4527 59.1756 22.5086 58.3682 23.5179C57.9178 24.0769 57.5296 24.4962 57.4986 24.4806C57.4831 24.4496 57.6694 23.8595 57.9178 23.1452C58.1818 22.4465 58.3837 21.8564 58.3837 21.8409C58.3837 21.8098 57.9178 22.0272 57.3433 22.3067C56.7532 22.5862 55.9613 22.8968 55.5576 23.0055C54.8278 23.1763 54.8122 23.2073 54.5793 24.0458C54.4396 24.5272 53.8806 26.3285 53.3216 28.0521C52.3899 31.0024 52.2501 31.2974 51.2253 32.8502C49.1601 35.9247 47.188 37.5241 46.1476 36.9341C45.5886 36.6235 45.4644 35.9869 45.6663 34.698C45.8681 33.4869 46.924 30.1328 48.1818 26.6856L49.0203 24.4185L48.1352 24.7757C47.6538 24.962 46.7843 25.226 46.1787 25.3502L45.1073 25.5676L43.8805 28.9682C42.2812 33.4247 41.7532 35.5055 41.7532 37.3844C41.7377 39.8844 42.5607 40.9248 44.4395 40.785C46.0234 40.6453 47.747 39.372 49.6725 36.903C50.1383 36.3285 50.5265 35.8782 50.5576 35.9092C50.6042 35.9403 50.2936 36.872 49.8743 37.9744C49.4551 39.0769 49.1756 40.0086 49.2532 40.0241C49.3619 40.0707 52.483 39.5738 53.5079 39.3564C53.7719 39.2943 53.865 39.0925 54.0358 38.1608C54.1445 37.5397 54.5017 36.08 54.8122 34.931C56.6911 28.3005 59.2688 23.6421 60.775 24.2166C61.0545 24.3253 61.1011 24.4496 61.0856 25.1639C61.07 25.8005 60.7905 26.6856 59.9365 28.875C58.7253 32.0117 58.0731 34.2477 58.0731 35.3813C58.0731 36.4216 58.6166 37.4154 59.393 37.8036C60.3557 38.2695 61.6601 38.2229 62.7936 37.6639C64.0359 37.0583 65.775 35.3657 66.9862 33.5956L67.98 32.1204L68.0887 32.8657C68.4148 35.0707 69.7346 36.3906 71.598 36.3906C73.0576 36.3751 74.2843 35.4589 75.6663 33.3316L76.3496 32.2912L76.5514 33.0055C76.9552 34.403 77.8713 35.0862 79.3931 35.0862C81.2098 35.0862 82.949 33.6887 84.9676 30.6297L85.9303 29.1545L86.1167 30.226C86.4117 31.9651 86.9552 32.8192 88.0887 33.3005C90.1539 34.1546 92.5142 32.5862 95.2316 28.5334C95.6819 27.8657 96.0856 27.3378 96.1633 27.3222C96.2254 27.3222 96.272 27.5552 96.272 27.8347C96.272 29.5117 97.3745 31.1111 98.803 31.4993C100.977 32.1204 103.477 31.2353 105.822 28.9993C107.111 27.7881 108.694 25.6452 108.694 25.1483C108.679 24.8999 107.825 23.7819 107.732 23.9061C107.701 23.9527 107.406 24.3875 107.079 24.8688C105.806 26.7788 103.353 28.5645 102.017 28.5645C100.806 28.5645 99.9987 27.5552 99.9987 26.0489C99.9987 24.698 100.03 24.667 101.815 23.7663C106.396 21.4371 109.284 17.7725 108.337 15.4899C108.042 14.7912 107.592 14.4806 106.567 14.2943C104.797 13.9526 102.949 14.6359 101.241 16.2353C99.6571 17.7259 98.5391 19.4496 97.1415 22.5552C96.4583 24.0769 94.5484 26.9496 93.3838 28.2384C90.8372 31.049 89.2999 29.6514 89.89 25.0552C90.0763 23.7042 90.7751 20.4278 90.9769 20.0862C91.0235 19.9775 91.7999 19.4185 92.7005 18.8129C95.5422 16.9185 97.9024 14.4495 99.7968 11.4061C102.638 6.85636 103.306 2.32219 101.35 0.878082C100.666 0.350132 99.2068 0.350132 98.1509 0.847027ZM100.247 3.48678C100.449 3.79734 100.496 4.12343 100.433 4.93089C100.201 8.00543 96.8465 13.2228 93.2285 16.1266C92.5763 16.6545 92.0173 17.0582 91.9862 17.0272C91.7689 16.8253 94.2999 10.6918 95.6819 8.06754C97.8558 3.89051 99.4552 2.29113 100.247 3.48678ZM106.334 16.375C106.427 17.7415 104.083 20.5055 101.94 21.5614C101.381 21.8409 100.884 22.0427 100.837 22.0117C100.729 21.8874 101.194 20.7073 101.784 19.5893C102.933 17.3999 104.797 15.6141 105.822 15.7073C106.241 15.7539 106.288 15.816 106.334 16.375ZM77.157 20.9558C77.9334 21.3595 78.1508 23.3005 77.6539 25.3812C76.9862 28.1452 75.9614 30.3813 74.7812 31.608C74.098 32.3223 73.5856 32.462 72.9645 32.1359C71.3961 31.2974 72.2346 25.7539 74.4086 22.493C75.3558 21.0955 76.3651 20.521 77.157 20.9558Z" fill="#302823"/>
<path id="Vector_3" d="M48.0592 17.6177C46.9567 18.1767 46.1182 19.6674 46.1182 21.1115C46.1182 21.9966 46.4443 22.4624 47.1275 22.6022C47.8884 22.7419 48.6493 22.4314 49.3015 21.7171C49.9071 21.0339 50.1089 20.6146 50.3108 19.5742C50.6213 17.8661 49.5033 16.8879 48.0592 17.6177Z" fill="#302823"/>
<path id="Vector_4" d="M67.1439 43.1607C50.2184 46.1266 36.2743 48.5955 36.1656 48.6421C36.0413 48.6887 36.0879 48.7353 36.2898 48.7353C36.4917 48.7508 41.5072 49.0614 47.4389 49.4496L58.2308 50.1483L77.9824 44.139C88.852 40.8471 97.8117 38.0831 97.8893 38.0054C97.967 37.9433 98.0135 37.8657 97.967 37.8346C97.9359 37.788 84.0539 40.1949 67.1439 43.1607Z" fill="#302823"/>
</g>
</svg>
